<svg xmlns="http://www.w3.org/2000/svg" viewBox="0 0 24.38 24.38"><defs><style>.cls-1{fill:none;}</style></defs><g id="Layer_2" data-name="Layer 2"><g id="Layer_1-2" data-name="Layer 1"><path d="M2.68,24a2.58,2.58,0,0,1-1.9-.78A2.58,2.58,0,0,1,0,21.27V7.33a2.58,2.58,0,0,1,.78-1.9,2.58,2.58,0,0,1,1.9-.78H21.33A2.66,2.66,0,0,1,24,7.33V21.27A2.66,2.66,0,0,1,21.33,24ZM21.33,9.89l-8.62,5.44a1.14,1.14,0,0,1-.36.16,1.34,1.34,0,0,1-.35,0,1.41,1.41,0,0,1-.35,0,1,1,0,0,1-.35-.16L2.68,9.89V21.27H21.33ZM12,13.21l9.33-5.88H2.68ZM2.68,9.89V8.36h0V9.89Z"/><rect class="cls-1" width="24.38" height="24.38"/></g></g></svg>