<svg xmlns="http://www.w3.org/2000/svg" viewBox="0 0 24 23.93"><g id="Layer_2" data-name="Layer 2"><g id="Layer_1-2" data-name="Layer 1"><path d="M8.51,8h4.75v2.12l.06,0,.13-.15a5,5,0,0,1,3.71-2.33,7.48,7.48,0,0,1,3.32.28,4.47,4.47,0,0,1,3,3.08A11.14,11.14,0,0,1,24,14.51c0,3.06,0,6.13,0,9.19a2.15,2.15,0,0,1,0,.23H19v-.36c0-2.63,0-5.26,0-7.89a10.25,10.25,0,0,0-.21-1.91,2.12,2.12,0,0,0-2.17-1.83,2.69,2.69,0,0,0-2.42.91,3.32,3.32,0,0,0-.67,1.77c-.05.53-.08,1.06-.08,1.59,0,2.46,0,4.93,0,7.39v.33h-5Z"/><path d="M5.36,23.93H.42V8H5.36Z"/><path d="M2.88,0A2.88,2.88,0,1,1,0,2.88,2.88,2.88,0,0,1,2.88,0Z"/></g></g></svg>