<?xml version="1.0" encoding="utf-8"?>
<!-- Generator: Adobe Illustrator 26.0.2, SVG Export Plug-In . SVG Version: 6.00 Build 0)  -->
<svg version="1.1" id="Layer_1" xmlns="http://www.w3.org/2000/svg" xmlns:xlink="http://www.w3.org/1999/xlink" x="0px" y="0px"
	 viewBox="0 0 232.8 194.7" style="enable-background:new 0 0 232.8 194.7;" xml:space="preserve">
<style type="text/css">
	.st0{fill:#333333;}
</style>
<g id="Layer_2_00000136393557756529014160000001047831348392542342_">
	<g id="Layer_1-2">
		<g id="vznkcr.tif">
			<path class="st0" d="M66.2,69.7c1.3-23.2,30-60.2,48.5-63l1-6.7h0.4l0.8,6.3c20,4.9,47.1,39.7,48.7,61.7
				c-16.5-1.6-33.1-4.6-49.6-4.3S82.9,67.6,66.2,69.7z"/>
			<path class="st0" d="M106.2,6.8C77.1,32.2,77.1,32.2,62.9,69c-20.5-5.8-42-6.8-62.9-2.9C12.5,42.3,57.2,10.9,106.2,6.8z"/>
			<path class="st0" d="M232.8,64.8c-11.2-0.4-21.9-1.5-32.5-1s-20.9,2.5-31.8,3.9c-6.2-24.9-19.8-45.9-42.4-60.8
				C169.5,12.1,205.7,30,232.8,64.8z"/>
			<path class="st0" d="M115.1,194.6c0-28.3,0-100.8-0.1-129.1h2l0.2,129.2L115.1,194.6z"/>
		</g>
	</g>
</g>
</svg>
